<svg width="142" height="22" viewBox="0 0 142 22" fill="none" xmlns="http://www.w3.org/2000/svg">
    <path d="M3.893 5.941C4.229 5.395 4.712 4.954 5.342 4.618C5.972 4.282 6.693 4.114 7.505 4.114C8.471 4.114 9.346 4.359 10.13 4.849C10.914 5.339 11.53 6.039 11.978 6.949C12.44 7.859 12.671 8.916 12.671 10.12C12.671 11.324 12.44 12.388 11.978 13.312C11.53 14.222 10.914 14.929 10.13 15.433C9.346 15.923 8.471 16.168 7.505 16.168C6.679 16.168 5.958 16.007 5.342 15.685C4.726 15.349 4.243 14.908 3.893 14.362V16H0.302V0.46H3.893V5.941ZM9.017 10.12C9.017 9.224 8.765 8.524 8.261 8.02C7.771 7.502 7.162 7.243 6.434 7.243C5.72 7.243 5.111 7.502 4.607 8.02C4.117 8.538 3.872 9.245 3.872 10.141C3.872 11.037 4.117 11.744 4.607 12.262C5.111 12.78 5.72 13.039 6.434 13.039C7.148 13.039 7.757 12.78 8.261 12.262C8.765 11.73 9.017 11.016 9.017 10.12ZM25.6009 9.952C25.6009 10.288 25.5799 10.638 25.5379 11.002H17.4109C17.4669 11.73 17.6979 12.29 18.1039 12.682C18.5239 13.06 19.0349 13.249 19.6369 13.249C20.5329 13.249 21.1559 12.871 21.5059 12.115H25.3279C25.1319 12.885 24.7749 13.578 24.2569 14.194C23.7529 14.81 23.1159 15.293 22.3459 15.643C21.5759 15.993 20.7149 16.168 19.7629 16.168C18.6149 16.168 17.5929 15.923 16.6969 15.433C15.8009 14.943 15.1009 14.243 14.5969 13.333C14.0929 12.423 13.8409 11.359 13.8409 10.141C13.8409 8.923 14.0859 7.859 14.5759 6.949C15.0799 6.039 15.7799 5.339 16.6759 4.849C17.5719 4.359 18.6009 4.114 19.7629 4.114C20.8969 4.114 21.9049 4.352 22.7869 4.828C23.6689 5.304 24.3549 5.983 24.8449 6.865C25.3489 7.747 25.6009 8.776 25.6009 9.952ZM21.9259 9.007C21.9259 8.391 21.7159 7.901 21.2959 7.537C20.8759 7.173 20.3509 6.991 19.7209 6.991C19.1189 6.991 18.6079 7.166 18.1879 7.516C17.7819 7.866 17.5299 8.363 17.4319 9.007H21.9259ZM26.7814 10.12C26.7814 8.916 27.0054 7.859 27.4534 6.949C27.9154 6.039 28.5384 5.339 29.3224 4.849C30.1064 4.359 30.9814 4.114 31.9474 4.114C32.7734 4.114 33.4944 4.282 34.1104 4.618C34.7404 4.954 35.2234 5.395 35.5594 5.941V4.282H39.1504V16H35.5594V14.341C35.2094 14.887 34.7194 15.328 34.0894 15.664C33.4734 16 32.7524 16.168 31.9264 16.168C30.9744 16.168 30.1064 15.923 29.3224 15.433C28.5384 14.929 27.9154 14.222 27.4534 13.312C27.0054 12.388 26.7814 11.324 26.7814 10.12ZM35.5594 10.141C35.5594 9.245 35.3074 8.538 34.8034 8.02C34.3134 7.502 33.7114 7.243 32.9974 7.243C32.2834 7.243 31.6744 7.502 31.1704 8.02C30.6804 8.524 30.4354 9.224 30.4354 10.12C30.4354 11.016 30.6804 11.73 31.1704 12.262C31.6744 12.78 32.2834 13.039 32.9974 13.039C33.7114 13.039 34.3134 12.78 34.8034 12.262C35.3074 11.744 35.5594 11.037 35.5594 10.141ZM53.3193 4.282V16H49.7283V14.404C49.3643 14.922 48.8673 15.342 48.2373 15.664C47.6213 15.972 46.9353 16.126 46.1793 16.126C45.2833 16.126 44.4923 15.93 43.8063 15.538C43.1203 15.132 42.5883 14.551 42.2103 13.795C41.8323 13.039 41.6433 12.15 41.6433 11.128V4.282H45.2133V10.645C45.2133 11.429 45.4163 12.038 45.8223 12.472C46.2283 12.906 46.7743 13.123 47.4603 13.123C48.1603 13.123 48.7133 12.906 49.1193 12.472C49.5253 12.038 49.7283 11.429 49.7283 10.645V4.282H53.3193ZM62.4297 12.955V16H60.6027C59.3007 16 58.2857 15.685 57.5577 15.055C56.8297 14.411 56.4657 13.368 56.4657 11.926V7.264H55.0377V4.282H56.4657V1.426H60.0567V4.282H62.4087V7.264H60.0567V11.968C60.0567 12.318 60.1407 12.57 60.3087 12.724C60.4767 12.878 60.7567 12.955 61.1487 12.955H62.4297ZM76.3999 4.282L69.0499 21.565H65.1859L67.8739 15.601L63.1069 4.282H67.1179L69.8269 11.611L72.5149 4.282H76.3999ZM139.056 16.168C138.426 16.168 137.908 15.986 137.502 15.622C137.11 15.244 136.914 14.782 136.914 14.236C136.914 13.676 137.11 13.207 137.502 12.829C137.908 12.451 138.426 12.262 139.056 12.262C139.672 12.262 140.176 12.451 140.568 12.829C140.974 13.207 141.177 13.676 141.177 14.236C141.177 14.782 140.974 15.244 140.568 15.622C140.176 15.986 139.672 16.168 139.056 16.168Z" fill="#0F241D"/>
    <path d="M82.4655 16.168C81.4435 16.168 80.5335 15.993 79.7355 15.643C78.9375 15.293 78.3075 14.817 77.8455 14.215C77.3835 13.599 77.1245 12.913 77.0685 12.157H80.6175C80.6595 12.563 80.8485 12.892 81.1845 13.144C81.5205 13.396 81.9335 13.522 82.4235 13.522C82.8715 13.522 83.2145 13.438 83.4525 13.27C83.7045 13.088 83.8305 12.857 83.8305 12.577C83.8305 12.241 83.6555 11.996 83.3055 11.842C82.9555 11.674 82.3885 11.492 81.6045 11.296C80.7645 11.1 80.0645 10.897 79.5045 10.687C78.9445 10.463 78.4615 10.12 78.0555 9.658C77.6495 9.182 77.4465 8.545 77.4465 7.747C77.4465 7.075 77.6285 6.466 77.9925 5.92C78.3705 5.36 78.9165 4.919 79.6305 4.597C80.3585 4.275 81.2195 4.114 82.2135 4.114C83.6835 4.114 84.8385 4.478 85.6785 5.206C86.5325 5.934 87.0225 6.9 87.1485 8.104H83.8305C83.7745 7.698 83.5925 7.376 83.2845 7.138C82.9905 6.9 82.5985 6.781 82.1085 6.781C81.6885 6.781 81.3665 6.865 81.1425 7.033C80.9185 7.187 80.8065 7.404 80.8065 7.684C80.8065 8.02 80.9815 8.272 81.3315 8.44C81.6955 8.608 82.2555 8.776 83.0115 8.944C83.8795 9.168 84.5865 9.392 85.1325 9.616C85.6785 9.826 86.1545 10.176 86.5605 10.666C86.9805 11.142 87.1975 11.786 87.2115 12.598C87.2115 13.284 87.0155 13.9 86.6235 14.446C86.2455 14.978 85.6925 15.398 84.9645 15.706C84.2505 16.014 83.4175 16.168 82.4655 16.168ZM88.6944 10.12C88.6944 8.916 88.9184 7.859 89.3664 6.949C89.8284 6.039 90.4514 5.339 91.2354 4.849C92.0194 4.359 92.8944 4.114 93.8604 4.114C94.6864 4.114 95.4074 4.282 96.0234 4.618C96.6534 4.954 97.1364 5.395 97.4724 5.941V4.282H101.063V16H97.4724V14.341C97.1224 14.887 96.6324 15.328 96.0024 15.664C95.3864 16 94.6654 16.168 93.8394 16.168C92.8874 16.168 92.0194 15.923 91.2354 15.433C90.4514 14.929 89.8284 14.222 89.3664 13.312C88.9184 12.388 88.6944 11.324 88.6944 10.12ZM97.4724 10.141C97.4724 9.245 97.2204 8.538 96.7164 8.02C96.2264 7.502 95.6244 7.243 94.9104 7.243C94.1964 7.243 93.5874 7.502 93.0834 8.02C92.5934 8.524 92.3484 9.224 92.3484 10.12C92.3484 11.016 92.5934 11.73 93.0834 12.262C93.5874 12.78 94.1964 13.039 94.9104 13.039C95.6244 13.039 96.2264 12.78 96.7164 12.262C97.2204 11.744 97.4724 11.037 97.4724 10.141ZM107.252 0.46V16H103.661V0.46H107.252ZM115.189 16.168C114.041 16.168 113.005 15.923 112.081 15.433C111.171 14.943 110.45 14.243 109.918 13.333C109.4 12.423 109.141 11.359 109.141 10.141C109.141 8.937 109.407 7.88 109.939 6.97C110.471 6.046 111.199 5.339 112.123 4.849C113.047 4.359 114.083 4.114 115.231 4.114C116.379 4.114 117.415 4.359 118.339 4.849C119.263 5.339 119.991 6.046 120.523 6.97C121.055 7.88 121.321 8.937 121.321 10.141C121.321 11.345 121.048 12.409 120.502 13.333C119.97 14.243 119.235 14.943 118.297 15.433C117.373 15.923 116.337 16.168 115.189 16.168ZM115.189 13.06C115.875 13.06 116.456 12.808 116.932 12.304C117.422 11.8 117.667 11.079 117.667 10.141C117.667 9.203 117.429 8.482 116.953 7.978C116.491 7.474 115.917 7.222 115.231 7.222C114.531 7.222 113.95 7.474 113.488 7.978C113.026 8.468 112.795 9.189 112.795 10.141C112.795 11.079 113.019 11.8 113.467 12.304C113.929 12.808 114.503 13.06 115.189 13.06ZM130.366 4.156C131.738 4.156 132.83 4.604 133.642 5.5C134.468 6.382 134.881 7.6 134.881 9.154V16H131.311V9.637C131.311 8.853 131.108 8.244 130.702 7.81C130.296 7.376 129.75 7.159 129.064 7.159C128.378 7.159 127.832 7.376 127.426 7.81C127.02 8.244 126.817 8.853 126.817 9.637V16H123.226V4.282H126.817V5.836C127.181 5.318 127.671 4.912 128.287 4.618C128.903 4.31 129.596 4.156 130.366 4.156Z" fill="#F9F9F9"/>
</svg>